<svg xmlns="http://www.w3.org/2000/svg" viewBox="0 0 780 500"><rect fill="#000000" width="780" height="500" rx="40"/><path fill="#4285F4" d="M244 250c0-17 14-31 31-31h62v-62h-62c-51 0-93 42-93 93s42 93 93 93h62v-62h-62c-17 0-31-14-31-31z"/><path fill="#34A853" d="M306 312h62c51 0 93-42 93-93h-62c0 17-14 31-31 31h-62v62z"/><path fill="#FBBC05" d="M306 157v62h62c0-17 14-31 31-31h62c0-51-42-93-93-93h-62v62z"/><path fill="#EA4335" d="M306 157h-62v62h62v-62z"/><text x="430" y="285" font-family="Google Sans, Arial, sans-serif" font-size="130" font-weight="500" fill="#FFFFFF">Pay</text></svg>