<svg xmlns="http://www.w3.org/2000/svg" viewBox="0 0 780 500"><rect fill="#1434CB" width="780" height="500" rx="40"/><path fill="#FFFFFF" d="M326 350l40-200h64l-40 200h-64zm294-193c-13-5-33-10-58-10-64 0-109 33-109 80 0 35 32 54 57 66 25 12 34 19 34 30 0 16-20 23-39 23-26 0-40-4-62-13l-8-4-9 54c15 7 44 13 74 13 68 0 111-32 112-82 0-27-17-48-54-65-22-11-36-18-36-30 0-10 12-21 36-21 20 0 35 4 46 9l6 3 8-52zm139 3h-50c-15 0-27 4-34 20l-96 170h67l13-36h82l8 36h59l-49-190zm-80 122l26-66 14-38 9 34 15 70h-64zM258 150l-63 136-7-28c-12-39-51-82-95-103l58 195h68l102-200h-63z"/><path fill="#F9A51A" d="M157 150H58l-1 5c77 19 128 65 149 121l-21-104c-4-15-15-20-28-22z"/></svg>