<svg xmlns="http://www.w3.org/2000/svg" viewBox="0 0 780 500">
  <!-- Apple Pay — official apple logo + "Pay" text -->
  <rect fill="#000000" width="780" height="500" rx="40"/>
  <g fill="#FFFFFF" transform="translate(100,120)">
    <!-- Apple logo path (simplified official) -->
    <path d="M78.5,68.3c-0.2-16.3,13.3-24.1,13.9-24.5c-7.6-11.1-19.4-12.6-23.6-12.8c-10-1-19.6,5.9-24.7,5.9c-5.1,0-13-5.7-21.4-5.6c-11,0.2-21.2,6.4-26.8,16.2c-11.4,19.8-2.9,49.1,8.2,65.1c5.4,7.8,11.8,16.6,20.3,16.3c8.1-0.3,11.2-5.3,21-5.3c9.8,0,12.6,5.3,21.2,5.1c8.8-0.2,14.3-7.9,19.7-15.8c6.2-9.1,8.7-17.9,8.8-18.4C94.7,94.5,78.8,88.4,78.5,68.3z"/>
    <path d="M64.2,22.1c4.5-5.5,7.5-13,6.7-20.6c-6.4,0.3-14.3,4.3-18.9,9.7c-4.1,4.8-7.7,12.5-6.8,19.9C51.6,31.6,59.7,27.5,64.2,22.1z"/>
    <!-- "Pay" text -->
    <text x="130" y="98" font-family="'SF Pro Display', 'Helvetica Neue', Helvetica, Arial, sans-serif" font-size="100" font-weight="300" letter-spacing="-2">Pay</text>
  </g>
</svg>