<svg xmlns="http://www.w3.org/2000/svg" viewBox="0 0 780 500">
  <!-- Google Pay — official "G" pay logo -->
  <rect fill="#000000" width="780" height="500" rx="40"/>
  <!-- Google "G" logo -->
  <g transform="translate(110,170)">
    <path fill="#4285F4" d="M42,80C32,80 23.6,76.4 17,70L3.6,83.4C13.6,93 27,99 42,99c20.6,0 38-12.8 44.4-31H42V80z"/>
    <path fill="#34A853" d="M3.6,83.4C-1.6,76.4 -5,67.6 -5,58s3.4-18.4 8.6-25.4L17,46C13,49.6 10.6,54.6 10.6,60c0,5.4 2.4,10.4 6.4,14L3.6,83.4z"/>
    <path fill="#FBBC05" d="M17,46l-13.4-13.4C8.6,25.6 24.4,19 42,19c9,0 17.4,3 24,8l-12,12c-3.6-2.4-7.6-3.6-12-3.6C32,35.4 23.6,39 17,46z"/>
    <path fill="#EA4335" d="M-5,58c0-4.4 0.6-8.6 1.6-12.6l13.4,13.4c-0.6,2.6-1,5.4-1,8.2s0.4,5.6,1,8.2L-3.6,83.4C-1.6,76.4 -5,67.6 -5,58z"/>
  </g>
  <!-- "Pay" text -->
  <text x="210" y="248" font-family="'Google Sans', 'Product Sans', 'Helvetica Neue', Arial, sans-serif" font-size="110" font-weight="500" fill="#FFFFFF" letter-spacing="-1">Pay</text>
</svg>