<svg xmlns="http://www.w3.org/2000/svg" viewBox="0 0 780 500"><rect fill="#000000" width="780" height="500" rx="40"/><path fill="#FFFFFF" d="M235 205c2-19 16-37 35-45-6 14-8 30 0 44 8 16 24 25 41 26-4 16-18 30-34 35-10 3-20 1-29-3-7-3-13-1-18 3-5 5-11 9-18 11-11 4-21-1-30-6-15-9-27-22-35-38-10-19-16-41-10-63 4-15 15-29 30-35 11-4 24-3 34 3 8 5 16 5 24 0 10-5 21-7 32-3 11 4 20 12 25 22-16 5-30 18-32 36l-15 13zm128-45h24v170h-28v-132l-30 12-9-22 43-28zm89 40c10-12 22-19 37-19 20 0 36 10 46 27 12 20 16 44 12 67-3 19-11 37-25 50-11 10-24 16-39 16-15 0-28-7-38-19v68h-27V185h26l1 15zm31 3c-10 0-19 5-26 14-8 11-12 26-11 40 1 13 5 26 14 35 7 7 15 10 24 9 10-1 18-6 24-14 8-11 11-25 10-39-1-13-5-25-13-34-6-7-14-11-22-11zm98-43h27v173h-27V160zm59 0h27v173h-27V160zm97 40c10-12 22-19 37-19 20 0 36 10 46 27 12 20 16 44 12 67-3 19-11 37-25 50-11 10-24 16-39 16-15 0-28-7-38-19v68h-27V185h26l1 15zm31 3c-10 0-19 5-26 14-8 11-12 26-11 40 1 13 5 26 14 35 7 7 15 10 24 9 10-1 18-6 24-14 8-11 11-25 10-39-1-13-5-25-13-34-6-7-14-11-22-11z"/></svg>