<svg xmlns="http://www.w3.org/2000/svg" viewBox="0 0 48 48"><circle fill="#010101" cx="24" cy="24" r="24"/><path fill="#25F4EE" d="M21.5 10h5.3v19.6c0 2.2-1.8 4-4 4s-4-1.8-4-4 1.8-4 4-4c.5 0 .9.1 1.3.2v-4.2c-.4-.1-.9-.1-1.3-.1-4.5 0-8.1 3.6-8.1 8.1s3.6 8.1 8.1 8.1 8.1-3.6 8.1-8.1V19h3.7c0-.1 0-2.8 0-4.2h-3.7v-4.8h-5.3V10z"/><path fill="#FE2C55" d="M30.8 14.8h3.7V19c-.9-.5-2-.8-3-.8-3.5 0-6.3 2.8-6.3 6.3 0 1.2.3 2.3.9 3.2-.4.1-.9.2-1.3.2-2.2 0-4-1.8-4-4s1.8-4 4-4c.5 0 .9.1 1.3.2V10h5.3v4.8z" opacity="0.9"/><path fill="#FFFFFF" d="M30.8 14.8v4.2c-1.5-1-3.4-1.4-5.3-.8v-3.4h5.3zm-5.3 3.4v4.2c-.4-.1-.9-.2-1.3-.2-2.2 0-4 1.8-4 4s1.8 4 4 4 4-1.8 4-4V19c1.9-.6 3.8-.2 5.3.8v-.8c0-4.5-3.6-8.1-8.1-8.1v7.2z"/></svg>