<svg xmlns="http://www.w3.org/2000/svg" viewBox="0 0 48 48">
  <rect width="48" height="48" rx="12" fill="#000000"/>
  <!-- TikTok note — cyan offset -->
  <path fill="#25F4EE" d="M32.1 6.2h-3.4a5.6 5.6 0 0 0 5.4 5.5v3.9a9.5 9.5 0 0 1-5.4-1.7v7.9a7.6 7.6 0 1 1-7.6-7.6c.3 0 .6 0 .9.1v4a3.7 3.7 0 1 0 2.6 3.5V6.2z"/>
  <!-- TikTok note — magenta offset -->
  <path fill="#FE2C55" d="M34.9 7.8h-3.4a5.6 5.6 0 0 0 5.4 5.5v3.9a9.5 9.5 0 0 1-5.4-1.7v7.9a7.6 7.6 0 1 1-7.6-7.6c.3 0 .6 0 .9.1v4a3.7 3.7 0 1 0 2.6 3.5V7.8z"/>
  <!-- TikTok note — white front -->
  <path fill="#FFFFFF" d="M33.5 7h-3.4a5.6 5.6 0 0 0 5.4 5.5v3.9a9.5 9.5 0 0 1-5.4-1.7v7.9a7.6 7.6 0 1 1-7.6-7.6c.3 0 .6 0 .9.1v4a3.7 3.7 0 1 0 2.6 3.5V7z"/>
</svg>
