<svg xmlns="http://www.w3.org/2000/svg" viewBox="0 0 48 48">
  <!-- Official TikTok logo — colored music note -->
  <circle fill="#000000" cx="24" cy="24" r="24"/>
  <path fill="#25F4EE" d="M32.4 15.4c1.6 1.2 3.6 1.8 5.6 1.8V12c-.4 0-.8-.1-1.2-.2v3.8c-2 0-3.9-.6-5.6-1.8v10.5c0 5.3-4.3 9.6-9.6 9.6-2 0-3.8-.6-5.3-1.6 1.7 1.8 4.1 2.8 6.7 2.8 5.3 0 9.6-4.3 9.6-9.6V15.4h-.2z"/>
  <path fill="#FE2C55" d="M31.2 13.8c-1.6-1.8-2.5-4.1-2.5-6.6h-4.5c0 5.3 4.3 9.6 9.6 9.6v-5c-1 0-1.9-.3-2.6-1v3z" opacity="0.9"/>
  <path fill="#FFFFFF" d="M21.6 22.3V18c.5-.1 1-.1 1.5-.1 5.3 0 9.6 4.3 9.6 9.6 0 1.8-.5 3.5-1.4 5-1.3-2.6-4-4.4-7.1-4.4-2.4 0-4.5 1.2-5.8 3.1-.8-1.2-1.3-2.6-1.3-4.1 0-1.8.6-3.4 1.6-4.7h2.9v-.1z"/>
  <!-- Black overlay for 3D effect -->
  <path fill="#000000" opacity="0.15" d="M21.6 22.3V18c.5-.1 1-.1 1.5-.1v4.3c-1 1.3-1.6 2.9-1.6 4.7 0 1.5.5 2.9 1.3 4.1l-.3.3c-1-1.6-1.6-3.5-1.6-5.5 0-1.2.2-2.4.7-3.5z"/>
</svg>