<svg xmlns="http://www.w3.org/2000/svg" viewBox="0 0 126 42" role="img"><title>Amazon</title><text x="2" y="27" font-family="Arial, Helvetica, sans-serif" font-size="27" font-weight="700" fill="#221F1F" letter-spacing="-1">amazon</text><path d="M14 31.5c10 5.6 25.5 7.8 38.5 7.8 8.6 0 18.4-1.8 26-5.2 1.1-.5 2.1.7 1 1.6-7 5.9-18.6 9-28.7 9-14.1 0-26.8-5.2-36.4-13.9-.8-.7-.1-1.7.9-1.3z" fill="#FF9900"/><path d="M84.5 29c-.7-.9-4.7-.4-6.5-.2-.5.1-.6-.4-.1-.8 3.2-2.2 8.4-1.6 9-.8.6.7-.2 6-3.1 8.5-.4.4-.9.2-.7-.3.6-1.6 2-5.3 1.4-6.2z" fill="#FF9900"/></svg>
